<svg xmlns="http://www.w3.org/2000/svg" xmlns:xlink="http://www.w3.org/1999/xlink" width="400" zoomAndPan="magnify" viewBox="0 0 300 187.499995" height="250" preserveAspectRatio="xMidYMid meet" version="1.0"><defs><g/><clipPath id="dfd46805b2"><path d="M 63 150 L 82 150 L 82 168.625 L 63 168.625 Z M 63 150 " clip-rule="nonzero"/></clipPath><clipPath id="7923e9a553"><path d="M 121 45.261719 L 209 45.261719 L 209 109 L 121 109 Z M 121 45.261719 " clip-rule="nonzero"/></clipPath><clipPath id="b68b16496c"><path d="M 118.464844 110 L 121 110 L 121 112.582031 L 118.464844 112.582031 Z M 118.464844 110 " clip-rule="nonzero"/></clipPath></defs><path fill="#ffffff" d="M 67.132812 102.363281 C 67.132812 102.363281 98.671875 92.628906 111.535156 111.828125 C 124.398438 131.03125 106.683594 150.191406 89.335938 137.832031 C 68.230469 122.804688 67.132812 102.363281 67.132812 102.363281 Z M 67.132812 102.363281 " fill-opacity="1" fill-rule="nonzero"/><path fill="#2c2828" d="M 100.527344 142.382812 C 96.660156 142.382812 92.683594 141 88.964844 138.351562 C 84.1875 134.980469 80.019531 130.976562 76.457031 126.339844 C 73.71875 122.753906 71.476562 118.882812 69.734375 114.71875 C 66.816406 107.710938 66.515625 102.625 66.503906 102.410156 L 66.480469 101.921875 L 66.949219 101.777344 C 72.691406 100.175781 78.546875 99.34375 84.511719 99.289062 C 90.097656 99.261719 95.109375 100.074219 99.398438 101.683594 C 104.792969 103.703125 109.054688 107.007812 112.054688 111.5 C 115.296875 116.335938 116.839844 121.511719 116.527344 126.460938 C 116.238281 130.953125 114.414062 135.046875 111.382812 137.988281 C 110.03125 139.304688 108.492188 140.34375 106.761719 141.097656 C 105.03125 141.855469 103.226562 142.28125 101.339844 142.378906 C 101.074219 142.371094 100.804688 142.382812 100.527344 142.382812 Z M 67.816406 102.828125 C 67.964844 104.261719 68.59375 108.679688 70.925781 114.273438 C 73.554688 120.558594 78.941406 129.65625 89.703125 137.320312 C 96.910156 142.449219 105.082031 142.351562 110.519531 137.0625 C 115.699219 132.035156 117.859375 122.390625 111.019531 112.179688 C 104.539062 102.5 93.046875 100.507812 84.546875 100.527344 C 78.871094 100.585938 73.292969 101.355469 67.816406 102.828125 Z M 67.816406 102.828125 " fill-opacity="1" fill-rule="nonzero"/><path fill="#ffffff" d="M 62.269531 102.363281 C 62.269531 102.363281 30.734375 92.628906 17.867188 111.828125 C 5.003906 131.03125 22.722656 150.191406 40.070312 137.832031 C 61.175781 122.804688 62.269531 102.363281 62.269531 102.363281 Z M 62.269531 102.363281 " fill-opacity="1" fill-rule="nonzero"/><path fill="#2c2828" d="M 28.878906 142.382812 C 28.605469 142.382812 28.332031 142.382812 28.046875 142.363281 C 26.164062 142.261719 24.359375 141.835938 22.632812 141.078125 C 20.90625 140.320312 19.367188 139.285156 18.019531 137.96875 C 14.984375 135.027344 13.15625 130.929688 12.871094 126.441406 C 12.554688 121.492188 14.101562 116.316406 17.34375 111.480469 C 20.351562 106.988281 24.605469 103.683594 30 101.660156 C 34.234375 100.070312 39.175781 99.265625 44.683594 99.265625 L 44.890625 99.265625 C 50.855469 99.324219 56.707031 100.152344 62.453125 101.757812 L 62.921875 101.902344 L 62.894531 102.390625 C 62.886719 102.597656 62.585938 107.691406 59.667969 114.699219 C 57.925781 118.859375 55.683594 122.734375 52.945312 126.320312 C 49.382812 130.957031 45.210938 134.960938 40.433594 138.332031 C 36.722656 140.992188 32.75 142.382812 28.878906 142.382812 Z M 44.699219 100.53125 C 36.214844 100.53125 24.828125 102.566406 18.390625 112.1875 C 11.542969 122.394531 13.714844 132.039062 18.890625 137.070312 C 24.328125 142.355469 32.5 142.464844 39.707031 137.324219 C 50.46875 129.664062 55.855469 120.566406 58.484375 114.28125 C 60.820312 108.679688 61.445312 104.269531 61.597656 102.832031 C 56.113281 101.359375 50.535156 100.59375 44.855469 100.53125 Z M 44.699219 100.53125 " fill-opacity="1" fill-rule="nonzero"/><path fill="#2c2828" d="M 85.902344 143.976562 C 85.507812 144.640625 85.078125 145.277344 84.613281 145.894531 C 74.886719 158.792969 54.136719 154.765625 45.5 146.050781 C 44.125 144.710938 43.0625 143.160156 42.3125 141.394531 C 41.960938 140.511719 41.65625 139.613281 41.402344 138.695312 C 40.800781 136.5 40.457031 134.261719 40.367188 131.984375 C 40.289062 129.949219 40.367188 127.917969 40.605469 125.894531 C 40.902344 123.421875 41.371094 120.984375 42.019531 118.578125 C 42.519531 116.691406 43.101562 114.859375 43.734375 113.109375 C 44.648438 110.585938 45.683594 108.117188 46.847656 105.695312 C 47.785156 103.722656 48.699219 102.007812 49.472656 100.628906 C 50.785156 98.285156 51.703125 96.914062 51.703125 96.914062 L 71.4375 98 C 73.78125 100.757812 75.953125 103.644531 77.953125 106.660156 C 79.035156 108.277344 80.164062 110.066406 81.261719 111.980469 C 82.179688 113.574219 83.078125 115.253906 83.910156 116.992188 C 84.742188 118.730469 85.480469 120.460938 86.132812 122.25 C 86.835938 124.15625 87.394531 126.097656 87.816406 128.082031 C 88.238281 130.039062 88.453125 132.015625 88.46875 134.015625 C 88.476562 135.359375 88.359375 136.691406 88.117188 138.015625 C 87.738281 140.136719 87 142.125 85.902344 143.976562 Z M 85.902344 143.976562 " fill-opacity="1" fill-rule="nonzero"/><path fill="#ffcd3f" d="M 86.136719 122.257812 C 83.625 123.035156 81.070312 123.609375 78.472656 123.976562 C 72.109375 124.886719 65.25 124.671875 58.082031 123.332031 C 54.585938 122.675781 51.144531 121.792969 47.761719 120.6875 C 45.5625 119.96875 43.628906 119.234375 42.023438 118.585938 C 42.523438 116.699219 43.109375 114.867188 43.738281 113.117188 C 48.761719 115.203125 53.941406 116.753906 59.285156 117.757812 C 68.359375 119.433594 76.597656 119.171875 83.910156 117 C 84.730469 118.707031 85.484375 120.46875 86.136719 122.257812 Z M 86.136719 122.257812 " fill-opacity="1" fill-rule="nonzero"/><path fill="#ffcd3f" d="M 88.472656 134.023438 C 84.644531 135.621094 80.679688 136.707031 76.574219 137.28125 C 70.207031 138.191406 63.351562 137.976562 56.183594 136.640625 C 52.6875 135.980469 49.246094 135.097656 45.863281 133.992188 C 43.777344 133.3125 41.921875 132.621094 40.371094 131.992188 C 40.292969 129.953125 40.375 127.921875 40.613281 125.898438 C 46.011719 128.25 51.601562 129.972656 57.386719 131.0625 C 68.949219 133.195312 79.148438 132.191406 87.820312 128.089844 C 88.238281 130.042969 88.457031 132.023438 88.472656 134.023438 Z M 88.472656 134.023438 " fill-opacity="1" fill-rule="nonzero"/><path fill="#ffcd3f" d="M 85.902344 143.976562 C 85.507812 144.640625 85.078125 145.277344 84.613281 145.894531 C 81.742188 146.964844 78.792969 147.761719 75.773438 148.277344 C 69.441406 149.378906 62.578125 149.367188 55.375 148.238281 C 52.039062 147.714844 48.746094 146.984375 45.5 146.050781 C 44.125 144.710938 43.0625 143.160156 42.3125 141.394531 C 41.960938 140.511719 41.65625 139.613281 41.402344 138.695312 C 46.277344 140.507812 51.28125 141.816406 56.414062 142.625 C 68.65625 144.511719 79.292969 142.960938 88.121094 138.015625 C 87.738281 140.136719 87 142.125 85.902344 143.976562 Z M 85.902344 143.976562 " fill-opacity="1" fill-rule="nonzero"/><g clip-path="url(#dfd46805b2)"><path fill="#2c2828" d="M 71.625 150.769531 C 71.625 150.769531 75.476562 163.089844 81.109375 167.886719 C 81.222656 167.964844 81.246094 168.058594 81.167969 168.175781 C 81.09375 168.292969 81 168.3125 80.882812 168.238281 C 77.640625 166.75 70.121094 162.386719 63.503906 151.820312 Z M 71.625 150.769531 " fill-opacity="1" fill-rule="nonzero"/></g><path fill="#ffcd3f" d="M 87.144531 85.914062 C 87.144531 100.21875 76.183594 106.757812 61.878906 106.757812 C 47.574219 106.757812 35.347656 100.21875 35.347656 85.914062 C 35.355469 85.070312 35.402344 84.226562 35.492188 83.390625 C 35.582031 82.550781 35.714844 81.71875 35.882812 80.894531 C 36.054688 80.066406 36.265625 79.25 36.515625 78.445312 C 36.769531 77.640625 37.058594 76.847656 37.386719 76.074219 C 37.714844 75.296875 38.078125 74.535156 38.480469 73.792969 C 38.882812 73.054688 39.320312 72.332031 39.792969 71.636719 C 40.265625 70.9375 40.769531 70.261719 41.308594 69.613281 C 41.847656 68.964844 42.414062 68.34375 43.015625 67.75 C 43.613281 67.15625 44.238281 66.589844 44.894531 66.058594 C 45.546875 65.527344 46.226562 65.027344 46.929688 64.5625 C 47.632812 64.09375 48.355469 63.664062 49.101562 63.269531 C 49.847656 62.871094 50.609375 62.515625 51.390625 62.195312 C 52.167969 61.871094 52.960938 61.589844 53.769531 61.347656 C 54.578125 61.101562 55.394531 60.898438 56.222656 60.734375 C 57.050781 60.574219 57.882812 60.449219 58.722656 60.367188 C 59.5625 60.285156 60.402344 60.246094 61.246094 60.246094 C 62.089844 60.246094 62.929688 60.285156 63.769531 60.367188 C 64.609375 60.449219 65.445312 60.574219 66.269531 60.734375 C 67.097656 60.898438 67.917969 61.101562 68.722656 61.347656 C 69.53125 61.589844 70.324219 61.871094 71.105469 62.195312 C 71.886719 62.515625 72.648438 62.871094 73.390625 63.269531 C 74.136719 63.664062 74.859375 64.09375 75.5625 64.5625 C 76.265625 65.027344 76.945312 65.527344 77.597656 66.058594 C 78.253906 66.589844 78.878906 67.15625 79.480469 67.75 C 80.078125 68.34375 80.648438 68.964844 81.183594 69.613281 C 81.722656 70.261719 82.230469 70.9375 82.703125 71.636719 C 83.175781 72.332031 83.609375 73.054688 84.011719 73.792969 C 84.414062 74.535156 84.78125 75.296875 85.109375 76.074219 C 85.4375 76.847656 85.726562 77.640625 85.976562 78.445312 C 86.226562 79.25 86.4375 80.066406 86.609375 80.894531 C 86.78125 81.71875 86.910156 82.550781 87 83.390625 C 87.089844 84.226562 87.136719 85.070312 87.144531 85.914062 Z M 87.144531 85.914062 " fill-opacity="1" fill-rule="nonzero"/><path fill="#2c2828" d="M 48.382812 70.40625 C 48.402344 70.566406 48.453125 70.71875 48.535156 70.863281 C 48.617188 71.003906 48.722656 71.125 48.851562 71.226562 C 48.980469 71.328125 49.125 71.398438 49.285156 71.441406 C 49.441406 71.484375 49.601562 71.496094 49.765625 71.472656 L 53.929688 70.941406 C 54.089844 70.917969 54.242188 70.867188 54.386719 70.785156 C 54.527344 70.703125 54.648438 70.597656 54.746094 70.46875 C 54.847656 70.339844 54.917969 70.195312 54.960938 70.039062 C 55.003906 69.882812 55.019531 69.722656 55 69.558594 C 54.941406 69.125 54.71875 68.808594 54.328125 68.613281 C 54.105469 68.5 53.867188 68.457031 53.617188 68.488281 L 49.449219 69.023438 C 49.289062 69.042969 49.136719 69.09375 48.992188 69.175781 C 48.851562 69.257812 48.730469 69.363281 48.632812 69.492188 C 48.53125 69.625 48.460938 69.765625 48.417969 69.925781 C 48.375 70.082031 48.363281 70.242188 48.382812 70.40625 Z M 48.382812 70.40625 " fill-opacity="1" fill-rule="nonzero"/><path fill="#2c2828" d="M 75.585938 71.019531 C 75.546875 71.179688 75.476562 71.324219 75.378906 71.457031 C 75.285156 71.585938 75.164062 71.695312 75.023438 71.78125 C 74.886719 71.863281 74.734375 71.917969 74.570312 71.945312 C 74.410156 71.96875 74.25 71.960938 74.089844 71.921875 L 70.015625 70.914062 C 69.855469 70.875 69.710938 70.804688 69.582031 70.707031 C 69.449219 70.609375 69.339844 70.492188 69.257812 70.351562 C 69.171875 70.210938 69.117188 70.0625 69.09375 69.898438 C 69.066406 69.738281 69.074219 69.578125 69.113281 69.417969 C 69.214844 68.996094 69.472656 68.707031 69.886719 68.554688 C 70.121094 68.46875 70.363281 68.457031 70.609375 68.515625 L 74.683594 69.523438 C 74.839844 69.5625 74.988281 69.628906 75.121094 69.726562 C 75.25 69.824219 75.359375 69.945312 75.445312 70.082031 C 75.53125 70.222656 75.582031 70.375 75.609375 70.539062 C 75.632812 70.699219 75.625 70.859375 75.585938 71.019531 Z M 75.585938 71.019531 " fill-opacity="1" fill-rule="nonzero"/><path fill="#ffffff" d="M 62.421875 85.242188 C 62.421875 85.835938 62.363281 86.421875 62.246094 87 C 62.132812 87.582031 61.960938 88.144531 61.734375 88.691406 C 61.507812 89.238281 61.230469 89.757812 60.902344 90.25 C 60.570312 90.742188 60.199219 91.199219 59.78125 91.617188 C 59.359375 92.035156 58.90625 92.410156 58.414062 92.738281 C 57.921875 93.066406 57.402344 93.34375 56.855469 93.570312 C 56.308594 93.796875 55.746094 93.96875 55.164062 94.085938 C 54.582031 94.199219 53.996094 94.257812 53.40625 94.257812 C 52.8125 94.257812 52.226562 94.199219 51.644531 94.085938 C 51.066406 93.96875 50.5 93.796875 49.953125 93.570312 C 49.40625 93.34375 48.886719 93.066406 48.394531 92.738281 C 47.902344 92.410156 47.449219 92.035156 47.03125 91.617188 C 46.613281 91.199219 46.238281 90.742188 45.910156 90.25 C 45.582031 89.757812 45.300781 89.238281 45.074219 88.691406 C 44.847656 88.144531 44.679688 87.582031 44.5625 87 C 44.449219 86.421875 44.390625 85.835938 44.390625 85.242188 C 44.390625 84.652344 44.449219 84.0625 44.5625 83.484375 C 44.679688 82.902344 44.847656 82.339844 45.074219 81.792969 C 45.300781 81.246094 45.582031 80.726562 45.910156 80.234375 C 46.238281 79.742188 46.613281 79.285156 47.03125 78.867188 C 47.449219 78.449219 47.902344 78.074219 48.394531 77.746094 C 48.886719 77.417969 49.40625 77.140625 49.953125 76.914062 C 50.5 76.6875 51.066406 76.515625 51.644531 76.402344 C 52.226562 76.285156 52.8125 76.226562 53.40625 76.226562 C 53.996094 76.222656 54.585938 76.277344 55.167969 76.390625 C 55.75 76.503906 56.316406 76.671875 56.863281 76.898438 C 57.414062 77.121094 57.933594 77.398438 58.429688 77.726562 C 58.921875 78.054688 59.378906 78.429688 59.796875 78.847656 C 60.21875 79.269531 60.589844 79.726562 60.921875 80.21875 C 61.25 80.710938 61.527344 81.234375 61.75 81.78125 C 61.976562 82.332031 62.144531 82.898438 62.257812 83.480469 C 62.371094 84.0625 62.425781 84.648438 62.421875 85.242188 Z M 62.421875 85.242188 " fill-opacity="1" fill-rule="nonzero"/><path fill="#2c2828" d="M 55.742188 78.757812 C 56.179688 78.859375 56.605469 79.003906 57.019531 79.195312 C 57.429688 79.382812 57.816406 79.605469 58.183594 79.871094 C 58.550781 80.136719 58.886719 80.433594 59.195312 80.761719 C 59.503906 81.09375 59.777344 81.453125 60.015625 81.835938 C 60.253906 82.21875 60.449219 82.625 60.609375 83.046875 C 60.765625 83.472656 60.882812 83.90625 60.953125 84.351562 C 61.027344 84.796875 61.054688 85.246094 61.039062 85.699219 C 61.023438 86.148438 60.960938 86.59375 60.859375 87.035156 C 60.753906 87.476562 60.609375 87.902344 60.421875 88.3125 C 60.234375 88.722656 60.007812 89.113281 59.742188 89.476562 C 59.480469 89.84375 59.183594 90.183594 58.851562 90.492188 C 58.519531 90.796875 58.164062 91.070312 57.777344 91.308594 C 57.394531 91.546875 56.992188 91.746094 56.566406 91.902344 C 56.144531 92.058594 55.710938 92.175781 55.261719 92.246094 C 54.816406 92.320312 54.367188 92.347656 53.917969 92.332031 C 53.464844 92.316406 53.019531 92.257812 52.578125 92.152344 C 52.140625 92.050781 51.714844 91.902344 51.304688 91.714844 C 50.890625 91.527344 50.503906 91.300781 50.136719 91.039062 C 49.769531 90.773438 49.433594 90.476562 49.125 90.144531 C 48.816406 89.816406 48.542969 89.457031 48.304688 89.074219 C 48.070312 88.6875 47.871094 88.285156 47.710938 87.863281 C 47.554688 87.4375 47.441406 87.003906 47.367188 86.558594 C 47.292969 86.109375 47.265625 85.664062 47.28125 85.210938 C 47.296875 84.757812 47.359375 84.3125 47.460938 83.875 C 47.566406 83.433594 47.710938 83.007812 47.898438 82.597656 C 48.085938 82.1875 48.3125 81.796875 48.578125 81.429688 C 48.839844 81.0625 49.140625 80.726562 49.46875 80.417969 C 49.800781 80.109375 50.15625 79.835938 50.542969 79.601562 C 50.925781 79.363281 51.332031 79.164062 51.753906 79.007812 C 52.175781 78.847656 52.613281 78.734375 53.058594 78.660156 C 53.503906 78.589844 53.953125 78.558594 54.402344 78.578125 C 54.855469 78.59375 55.300781 78.652344 55.742188 78.757812 Z M 55.742188 78.757812 " fill-opacity="1" fill-rule="nonzero"/><path fill="#ffffff" d="M 61.988281 84.53125 C 61.816406 86 61.996094 87.425781 62.53125 88.808594 C 63.058594 90.183594 63.878906 91.359375 64.984375 92.335938 C 65.234375 92.554688 65.496094 92.761719 65.765625 92.953125 C 66.039062 93.144531 66.324219 93.320312 66.613281 93.480469 C 66.90625 93.640625 67.207031 93.785156 67.515625 93.910156 C 67.824219 94.035156 68.140625 94.144531 68.460938 94.238281 C 68.78125 94.328125 69.105469 94.402344 69.433594 94.460938 C 69.761719 94.515625 70.09375 94.554688 70.425781 94.574219 C 70.757812 94.589844 71.089844 94.59375 71.425781 94.574219 C 71.757812 94.558594 72.089844 94.519531 72.417969 94.464844 C 72.746094 94.410156 73.070312 94.339844 73.390625 94.25 C 73.714844 94.15625 74.027344 94.050781 74.335938 93.925781 C 74.644531 93.800781 74.945312 93.65625 75.238281 93.5 C 75.53125 93.339844 75.816406 93.164062 76.089844 92.972656 C 76.363281 92.785156 76.625 92.578125 76.878906 92.359375 C 77.128906 92.140625 77.367188 91.90625 77.59375 91.660156 C 77.816406 91.417969 78.027344 91.160156 78.226562 90.890625 C 78.421875 90.621094 78.601562 90.339844 78.769531 90.050781 C 78.933594 89.761719 79.082031 89.464844 79.214844 89.160156 C 79.347656 88.851562 79.464844 88.539062 79.5625 88.222656 C 79.660156 87.902344 79.738281 87.578125 79.800781 87.253906 C 79.863281 86.925781 79.90625 86.59375 79.933594 86.261719 C 79.957031 85.929688 79.964844 85.597656 79.953125 85.265625 C 79.941406 84.929688 79.914062 84.597656 79.863281 84.269531 C 79.816406 83.9375 79.75 83.613281 79.667969 83.289062 C 79.582031 82.96875 79.480469 82.652344 79.359375 82.339844 C 79.242188 82.027344 79.105469 81.726562 78.949219 81.429688 C 78.796875 81.132812 78.628906 80.847656 78.445312 80.570312 C 78.257812 80.292969 78.058594 80.023438 77.84375 79.769531 C 77.628906 79.515625 77.402344 79.273438 77.160156 79.042969 C 76.917969 78.8125 76.664062 78.597656 76.398438 78.394531 C 76.132812 78.191406 75.859375 78.007812 75.574219 77.835938 C 75.285156 77.664062 74.992188 77.507812 74.6875 77.371094 C 74.386719 77.230469 74.074219 77.109375 73.757812 77.007812 C 73.441406 76.902344 73.121094 76.816406 72.792969 76.75 C 72.46875 76.679688 72.136719 76.628906 71.804688 76.597656 C 71.472656 76.566406 71.140625 76.554688 70.808594 76.558594 C 70.476562 76.5625 70.144531 76.585938 69.8125 76.628906 C 69.480469 76.671875 69.152344 76.730469 68.828125 76.808594 C 68.503906 76.886719 68.1875 76.980469 67.875 77.097656 C 67.558594 77.210938 67.253906 77.339844 66.953125 77.488281 C 66.65625 77.636719 66.367188 77.800781 66.085938 77.980469 C 65.804688 78.160156 65.535156 78.351562 65.273438 78.5625 C 65.015625 78.773438 64.769531 78.996094 64.535156 79.234375 C 64.300781 79.46875 64.078125 79.71875 63.871094 79.980469 C 63.664062 80.242188 63.472656 80.515625 63.296875 80.796875 C 63.121094 81.082031 62.960938 81.371094 62.816406 81.671875 C 62.671875 81.972656 62.542969 82.28125 62.433594 82.59375 C 62.324219 82.910156 62.230469 83.230469 62.15625 83.554688 C 62.082031 83.878906 62.027344 84.207031 61.988281 84.539062 Z M 61.988281 84.53125 " fill-opacity="1" fill-rule="nonzero"/><path fill="#2c2828" d="M 77.089844 85.691406 C 77.089844 86.144531 77.046875 86.59375 76.957031 87.035156 C 76.867188 87.480469 76.738281 87.910156 76.566406 88.328125 C 76.390625 88.742188 76.179688 89.140625 75.929688 89.515625 C 75.679688 89.890625 75.394531 90.238281 75.074219 90.558594 C 74.753906 90.878906 74.40625 91.164062 74.03125 91.414062 C 73.65625 91.667969 73.257812 91.878906 72.839844 92.050781 C 72.421875 92.222656 71.992188 92.355469 71.550781 92.441406 C 71.105469 92.53125 70.660156 92.574219 70.207031 92.574219 C 69.753906 92.574219 69.308594 92.53125 68.863281 92.441406 C 68.421875 92.355469 67.992188 92.222656 67.574219 92.050781 C 67.15625 91.878906 66.757812 91.667969 66.382812 91.414062 C 66.007812 91.164062 65.660156 90.878906 65.339844 90.558594 C 65.019531 90.238281 64.734375 89.890625 64.484375 89.515625 C 64.234375 89.140625 64.023438 88.742188 63.847656 88.328125 C 63.675781 87.910156 63.546875 87.480469 63.457031 87.035156 C 63.367188 86.59375 63.324219 86.144531 63.324219 85.691406 C 63.324219 85.242188 63.367188 84.792969 63.457031 84.351562 C 63.546875 83.90625 63.675781 83.476562 63.847656 83.058594 C 64.023438 82.640625 64.234375 82.246094 64.484375 81.871094 C 64.734375 81.492188 65.019531 81.144531 65.339844 80.828125 C 65.660156 80.507812 66.007812 80.222656 66.382812 79.96875 C 66.757812 79.71875 67.15625 79.507812 67.574219 79.335938 C 67.992188 79.160156 68.421875 79.03125 68.863281 78.941406 C 69.308594 78.855469 69.753906 78.8125 70.207031 78.8125 C 70.660156 78.8125 71.105469 78.855469 71.550781 78.941406 C 71.992188 79.03125 72.421875 79.160156 72.839844 79.335938 C 73.257812 79.507812 73.65625 79.71875 74.03125 79.96875 C 74.40625 80.222656 74.753906 80.507812 75.074219 80.828125 C 75.394531 81.144531 75.679688 81.492188 75.929688 81.871094 C 76.179688 82.246094 76.390625 82.640625 76.566406 83.058594 C 76.738281 83.476562 76.867188 83.90625 76.957031 84.351562 C 77.046875 84.792969 77.089844 85.242188 77.089844 85.691406 Z M 77.089844 85.691406 " fill-opacity="1" fill-rule="nonzero"/><path fill="#2c2828" d="M 62.003906 97.253906 C 59.429688 97.253906 57.835938 95.265625 57.8125 95.234375 C 57.707031 95.097656 57.664062 94.941406 57.683594 94.769531 C 57.707031 94.597656 57.785156 94.457031 57.921875 94.351562 C 58.058594 94.242188 58.214844 94.199219 58.386719 94.222656 C 58.5625 94.242188 58.699219 94.320312 58.808594 94.460938 C 58.914062 94.59375 61.347656 97.570312 65.074219 94.820312 C 65.214844 94.71875 65.371094 94.679688 65.542969 94.707031 C 65.714844 94.730469 65.851562 94.816406 65.957031 94.953125 C 66.058594 95.09375 66.097656 95.25 66.070312 95.421875 C 66.046875 95.59375 65.964844 95.734375 65.824219 95.835938 C 64.394531 96.886719 63.105469 97.253906 62.003906 97.253906 Z M 62.003906 97.253906 " fill-opacity="1" fill-rule="nonzero"/><path fill="#2c2828" d="M 33.789062 87.84375 C 33.65625 87.84375 33.523438 87.835938 33.394531 87.820312 C 32.953125 87.769531 32.542969 87.636719 32.15625 87.421875 C 31.769531 87.207031 31.4375 86.925781 31.164062 86.578125 C 30.890625 86.230469 30.691406 85.847656 30.570312 85.421875 C 30.449219 84.996094 30.414062 84.5625 30.46875 84.125 C 30.519531 83.699219 30.648438 83.300781 30.855469 82.925781 C 31.058594 82.550781 31.328125 82.226562 31.660156 81.953125 C 31.992188 81.683594 32.359375 81.484375 32.769531 81.355469 C 33.175781 81.226562 33.59375 81.179688 34.019531 81.214844 C 34.449219 81.246094 34.851562 81.359375 35.238281 81.546875 C 35.621094 81.738281 35.953125 81.992188 36.238281 82.3125 C 36.523438 82.632812 36.738281 82.992188 36.886719 83.394531 C 37.03125 83.796875 37.097656 84.210938 37.082031 84.640625 C 37.066406 85.066406 36.972656 85.476562 36.796875 85.867188 C 36.625 86.257812 36.382812 86.605469 36.078125 86.902344 C 35.769531 87.203125 35.417969 87.429688 35.023438 87.59375 C 34.628906 87.757812 34.214844 87.839844 33.789062 87.84375 Z M 31.710938 84.273438 C 31.679688 84.546875 31.699219 84.8125 31.773438 85.078125 C 31.851562 85.34375 31.972656 85.585938 32.144531 85.800781 C 32.3125 86.019531 32.519531 86.191406 32.757812 86.328125 C 33 86.460938 33.257812 86.546875 33.53125 86.578125 C 33.804688 86.609375 34.074219 86.589844 34.335938 86.515625 C 34.601562 86.4375 34.84375 86.316406 35.058594 86.144531 C 35.273438 85.972656 35.449219 85.769531 35.585938 85.527344 C 35.71875 85.289062 35.800781 85.03125 35.832031 84.757812 C 35.867188 84.484375 35.84375 84.214844 35.769531 83.949219 C 35.691406 83.683594 35.570312 83.445312 35.398438 83.226562 C 35.226562 83.011719 35.019531 82.835938 34.78125 82.703125 C 34.539062 82.570312 34.28125 82.488281 34.007812 82.457031 C 33.738281 82.425781 33.46875 82.445312 33.203125 82.523438 C 32.941406 82.597656 32.699219 82.71875 32.484375 82.890625 C 32.269531 83.058594 32.097656 83.265625 31.960938 83.503906 C 31.828125 83.742188 31.746094 84 31.710938 84.273438 Z M 31.710938 84.273438 " fill-opacity="1" fill-rule="nonzero"/><path fill="#2c2828" d="M 33.789062 87.84375 C 33.65625 87.84375 33.523438 87.835938 33.394531 87.820312 C 32.953125 87.769531 32.542969 87.636719 32.15625 87.421875 C 31.769531 87.207031 31.4375 86.925781 31.164062 86.578125 C 30.890625 86.230469 30.691406 85.847656 30.570312 85.421875 C 30.449219 84.996094 30.414062 84.5625 30.46875 84.125 C 30.519531 83.699219 30.648438 83.300781 30.855469 82.925781 C 31.058594 82.550781 31.328125 82.226562 31.660156 81.953125 C 31.992188 81.683594 32.359375 81.484375 32.769531 81.355469 C 33.175781 81.226562 33.59375 81.179688 34.019531 81.214844 C 34.449219 81.246094 34.851562 81.359375 35.238281 81.546875 C 35.621094 81.738281 35.953125 81.992188 36.238281 82.3125 C 36.523438 82.632812 36.738281 82.992188 36.886719 83.394531 C 37.03125 83.796875 37.097656 84.210938 37.082031 84.640625 C 37.066406 85.066406 36.972656 85.476562 36.796875 85.867188 C 36.625 86.257812 36.382812 86.605469 36.078125 86.902344 C 35.769531 87.203125 35.417969 87.429688 35.023438 87.59375 C 34.628906 87.757812 34.214844 87.839844 33.789062 87.84375 Z M 31.710938 84.273438 C 31.679688 84.546875 31.699219 84.8125 31.773438 85.078125 C 31.851562 85.34375 31.972656 85.585938 32.144531 85.800781 C 32.3125 86.019531 32.519531 86.191406 32.757812 86.328125 C 33 86.460938 33.257812 86.546875 33.53125 86.578125 C 33.804688 86.609375 34.074219 86.589844 34.335938 86.515625 C 34.601562 86.4375 34.84375 86.316406 35.058594 86.144531 C 35.273438 85.972656 35.449219 85.769531 35.585938 85.527344 C 35.71875 85.289062 35.800781 85.03125 35.832031 84.757812 C 35.867188 84.484375 35.84375 84.214844 35.769531 83.949219 C 35.691406 83.683594 35.570312 83.445312 35.398438 83.226562 C 35.226562 83.011719 35.019531 82.835938 34.78125 82.703125 C 34.539062 82.570312 34.28125 82.488281 34.007812 82.457031 C 33.738281 82.425781 33.46875 82.445312 33.203125 82.523438 C 32.941406 82.597656 32.699219 82.71875 32.484375 82.890625 C 32.269531 83.058594 32.097656 83.265625 31.960938 83.503906 C 31.828125 83.742188 31.746094 84 31.710938 84.273438 Z M 31.710938 84.273438 " fill-opacity="1" fill-rule="nonzero"/><path fill="#2c2828" d="M 34.335938 82.332031 C 34.074219 82.335938 33.886719 82.21875 33.769531 81.984375 C 33.675781 81.796875 31.515625 77.351562 34.40625 72.078125 C 37.035156 67.277344 36.40625 63.363281 36.398438 63.328125 C 36.371094 63.160156 36.40625 63 36.507812 62.859375 C 36.609375 62.71875 36.746094 62.632812 36.917969 62.605469 C 37.089844 62.574219 37.246094 62.613281 37.386719 62.714844 C 37.53125 62.816406 37.617188 62.949219 37.644531 63.121094 C 37.675781 63.300781 38.351562 67.507812 35.511719 72.6875 C 32.9375 77.390625 34.878906 81.386719 34.890625 81.429688 C 34.972656 81.585938 34.984375 81.746094 34.925781 81.910156 C 34.871094 82.078125 34.765625 82.199219 34.609375 82.273438 C 34.523438 82.316406 34.429688 82.335938 34.335938 82.332031 Z M 34.335938 82.332031 " fill-opacity="1" fill-rule="nonzero"/><path fill="#3babcd" d="M 72.15625 56.355469 L 73.632812 59.597656 C 73.730469 59.808594 73.746094 60.023438 73.683594 60.246094 C 73.621094 60.464844 73.496094 60.640625 73.300781 60.769531 C 70.210938 62.84375 56.652344 71.144531 41.574219 69.089844 C 41.320312 69.054688 41.117188 68.9375 40.960938 68.734375 C 40.804688 68.535156 40.738281 68.304688 40.769531 68.050781 L 41.855469 58.828125 C 41.882812 58.605469 41.976562 58.417969 42.136719 58.261719 C 42.300781 58.105469 42.492188 58.015625 42.71875 58 L 71.226562 55.808594 C 71.425781 55.792969 71.605469 55.835938 71.777344 55.9375 C 71.945312 56.035156 72.074219 56.175781 72.15625 56.355469 Z M 72.15625 56.355469 " fill-opacity="1" fill-rule="nonzero"/><path fill="#3babcd" d="M 55.707031 40.265625 L 76.71875 47.0625 C 77.371094 47.273438 77.917969 47.640625 78.359375 48.167969 C 78.796875 48.691406 79.066406 49.296875 79.15625 49.976562 C 79.25 50.65625 79.15625 51.308594 78.871094 51.933594 C 78.585938 52.558594 78.160156 53.058594 77.585938 53.4375 C 71.480469 57.464844 62.230469 63.902344 55.675781 70 C 55.417969 70.242188 55.132812 70.4375 54.816406 70.59375 C 54.5 70.75 54.167969 70.855469 53.820312 70.914062 C 53.472656 70.96875 53.125 70.976562 52.773438 70.929688 C 52.425781 70.882812 52.089844 70.789062 51.769531 70.644531 L 29.175781 60.425781 C 28.566406 60.15625 28.074219 59.746094 27.699219 59.195312 C 27.320312 58.648438 27.113281 58.042969 27.074219 57.378906 C 27.035156 56.714844 27.171875 56.089844 27.484375 55.5 C 27.792969 54.914062 28.234375 54.449219 28.808594 54.105469 C 34.554688 50.675781 43.789062 45.28125 52.953125 40.507812 C 53.835938 40.042969 54.753906 39.960938 55.707031 40.265625 Z M 55.707031 40.265625 " fill-opacity="1" fill-rule="nonzero"/><path fill="#2c2828" d="M 53.238281 71.59375 C 52.636719 71.59375 52.058594 71.46875 51.507812 71.21875 L 28.914062 60.996094 C 28.753906 60.925781 28.644531 60.808594 28.582031 60.644531 C 28.519531 60.480469 28.527344 60.320312 28.597656 60.164062 C 28.667969 60.003906 28.785156 59.894531 28.949219 59.832031 C 29.109375 59.769531 29.269531 59.773438 29.429688 59.847656 L 52.023438 70.070312 C 52.566406 70.316406 53.128906 70.390625 53.714844 70.292969 C 54.300781 70.195312 54.808594 69.945312 55.242188 69.539062 C 61.726562 63.507812 70.78125 57.167969 77.238281 52.914062 C 77.382812 52.816406 77.539062 52.785156 77.710938 52.820312 C 77.882812 52.855469 78.015625 52.945312 78.109375 53.089844 C 78.207031 53.234375 78.238281 53.394531 78.203125 53.5625 C 78.167969 53.734375 78.078125 53.867188 77.933594 53.964844 C 71.519531 58.195312 62.527344 64.488281 56.105469 70.460938 C 55.300781 71.214844 54.34375 71.589844 53.238281 71.59375 Z M 53.238281 71.59375 " fill-opacity="1" fill-rule="nonzero"/><path fill="#ffffff" d="M 52.902344 50.070312 C 53.5 50.09375 54.070312 50.191406 54.617188 50.359375 C 55.164062 50.527344 55.644531 50.75 56.054688 51.035156 C 56.464844 51.324219 56.78125 51.644531 56.992188 52.003906 C 57.207031 52.363281 57.308594 52.734375 57.292969 53.109375 C 57.277344 53.488281 57.148438 53.851562 56.902344 54.191406 C 56.660156 54.53125 56.324219 54.828125 55.890625 55.078125 C 55.457031 55.328125 54.960938 55.515625 54.402344 55.636719 C 53.84375 55.757812 53.265625 55.808594 52.667969 55.78125 C 52.070312 55.757812 51.5 55.664062 50.953125 55.496094 C 50.40625 55.328125 49.925781 55.101562 49.515625 54.816406 C 49.105469 54.53125 48.789062 54.207031 48.578125 53.847656 C 48.363281 53.488281 48.261719 53.121094 48.277344 52.742188 C 48.292969 52.363281 48.421875 52.003906 48.667969 51.664062 C 48.910156 51.320312 49.246094 51.027344 49.679688 50.777344 C 50.113281 50.523438 50.609375 50.339844 51.167969 50.214844 C 51.726562 50.09375 52.304688 50.046875 52.902344 50.070312 Z M 52.902344 50.070312 " fill-opacity="1" fill-rule="nonzero"/><path fill="#2c2828" d="M 47.382812 108.878906 C 41.664062 108.878906 34.144531 106.292969 26.328125 96.371094 L 27.316406 95.589844 C 36.417969 107.136719 44.980469 108.347656 50.554688 107.332031 L 50.78125 108.578125 C 49.65625 108.777344 48.523438 108.878906 47.382812 108.878906 Z M 47.382812 108.878906 " fill-opacity="1" fill-rule="nonzero"/><path fill="#2c2828" d="M 21.902344 95.980469 C 23.40625 97.914062 25.488281 97.949219 27.210938 96.601562 C 28.933594 95.253906 29.636719 93.0625 28.140625 91.136719 C 26.644531 89.207031 22.660156 87.050781 20.941406 88.390625 C 19.21875 89.734375 20.394531 94.039062 21.902344 95.980469 Z M 21.902344 95.980469 " fill-opacity="1" fill-rule="nonzero"/><path fill="#db665a" d="M 97.613281 102.960938 C 93.554688 101.582031 79.445312 96.78125 75.472656 95.363281 C 75.371094 95.324219 75.265625 95.3125 75.15625 95.320312 C 75.046875 95.332031 74.945312 95.363281 74.847656 95.421875 C 74.753906 95.476562 74.675781 95.546875 74.613281 95.640625 C 74.550781 95.730469 74.511719 95.828125 74.492188 95.9375 L 74.429688 96.308594 L 70.183594 95.582031 C 70.011719 95.550781 69.84375 95.554688 69.675781 95.59375 C 69.507812 95.628906 69.351562 95.695312 69.210938 95.792969 C 69.070312 95.890625 68.949219 96.007812 68.855469 96.152344 C 68.757812 96.296875 68.691406 96.449219 68.65625 96.617188 C 67.785156 100.785156 64.320312 114.878906 61.738281 134.003906 C 61.71875 134.140625 61.71875 134.273438 61.738281 134.410156 C 61.773438 134.671875 61.863281 134.914062 62.007812 135.136719 C 62.148438 135.363281 62.328125 135.546875 62.546875 135.695312 C 62.769531 135.84375 63.007812 135.9375 63.269531 135.984375 C 63.53125 136.027344 63.789062 136.015625 64.046875 135.953125 L 64.359375 135.875 L 66.433594 137.609375 L 66.183594 138.589844 C 66.125 138.820312 66.152344 139.039062 66.269531 139.246094 C 66.386719 139.457031 66.558594 139.59375 66.785156 139.664062 C 69.835938 140.613281 80.949219 143.65625 90.339844 141.101562 C 90.648438 141.015625 90.917969 140.863281 91.148438 140.636719 C 91.375 140.414062 91.535156 140.148438 91.625 139.84375 C 92.742188 136.128906 96.71875 122.085938 98.601562 104.507812 C 98.640625 104.164062 98.566406 103.847656 98.382812 103.558594 C 98.195312 103.269531 97.941406 103.070312 97.613281 102.960938 Z M 97.613281 102.960938 " fill-opacity="1" fill-rule="nonzero"/><path fill="#ffffff" d="M 66.175781 138.582031 C 66.121094 138.808594 66.144531 139.023438 66.257812 139.230469 C 66.371094 139.4375 66.539062 139.574219 66.761719 139.648438 L 78.738281 108.273438 L 74.378906 97.835938 L 71.417969 97.175781 C 71.269531 97.152344 71.121094 97.160156 70.972656 97.199219 C 70.824219 97.234375 70.691406 97.296875 70.566406 97.386719 C 70.445312 97.476562 70.34375 97.585938 70.261719 97.714844 C 70.179688 97.84375 70.128906 97.980469 70.101562 98.132812 C 69.21875 103.097656 65.65625 123.136719 64.824219 126.914062 C 63.875 131.230469 62.894531 135.597656 64.363281 135.867188 L 66.4375 137.597656 Z M 66.175781 138.582031 " fill-opacity="1" fill-rule="nonzero"/><path fill="#db665a" d="M 91.621094 139.835938 C 92.738281 136.117188 96.710938 122.078125 98.59375 104.5 C 98.632812 104.160156 98.558594 103.847656 98.375 103.558594 C 98.191406 103.269531 97.9375 103.074219 97.613281 102.964844 C 93.550781 101.585938 79.445312 96.785156 75.472656 95.363281 C 75.28125 95.292969 75.089844 95.304688 74.90625 95.394531 C 74.71875 95.480469 74.59375 95.621094 74.523438 95.816406 L 74.523438 95.925781 C 74.523438 95.925781 74.496094 96.0625 74.445312 96.3125 C 73.921875 98.859375 70.96875 113.292969 70.351562 117.59375 C 69.753906 121.71875 67.277344 133.960938 66.40625 137.578125 L 66.433594 137.597656 L 66.183594 138.582031 C 66.125 138.8125 66.152344 139.03125 66.269531 139.238281 C 66.386719 139.445312 66.558594 139.585938 66.785156 139.65625 C 69.835938 140.605469 80.949219 143.648438 90.339844 141.09375 C 90.648438 141.007812 90.914062 140.851562 91.144531 140.628906 C 91.371094 140.402344 91.53125 140.140625 91.621094 139.835938 Z M 91.621094 139.835938 " fill-opacity="1" fill-rule="nonzero"/><path fill="#2c2828" d="M 95.308594 120.902344 C 95.308594 120.902344 90.230469 119.605469 87.085938 122.820312 C 83.941406 126.035156 92.011719 133.238281 96.375 129.957031 C 99.378906 127.695312 99.144531 121.636719 95.308594 120.902344 Z M 95.308594 120.902344 " fill-opacity="1" fill-rule="nonzero"/><path fill="#ffffff" d="M 92.90625 108.746094 C 92.765625 109.8125 92.542969 111.320312 92.285156 112.8125 C 92.242188 113.046875 92.15625 113.265625 92.027344 113.464844 C 91.898438 113.664062 91.734375 113.832031 91.535156 113.964844 C 91.335938 114.097656 91.121094 114.1875 90.886719 114.230469 C 90.652344 114.277344 90.417969 114.277344 90.183594 114.226562 L 81.414062 112.359375 L 78.488281 111.738281 C 78.265625 111.6875 78.058594 111.601562 77.867188 111.46875 C 77.675781 111.339844 77.519531 111.179688 77.390625 110.988281 C 77.261719 110.796875 77.175781 110.589844 77.132812 110.363281 C 77.085938 110.136719 77.082031 109.914062 77.125 109.6875 L 78.09375 104.554688 C 78.140625 104.304688 78.238281 104.078125 78.382812 103.871094 C 78.527344 103.664062 78.707031 103.496094 78.925781 103.367188 C 79.140625 103.238281 79.375 103.160156 79.625 103.128906 C 79.878906 103.101562 80.121094 103.125 80.363281 103.203125 L 91.707031 106.832031 C 91.90625 106.894531 92.085938 106.992188 92.246094 107.117188 C 92.410156 107.246094 92.546875 107.394531 92.65625 107.570312 C 92.765625 107.746094 92.839844 107.933594 92.882812 108.136719 C 92.929688 108.335938 92.9375 108.539062 92.90625 108.746094 Z M 92.90625 108.746094 " fill-opacity="1" fill-rule="nonzero"/><path fill="#ffffff" d="M 230.316406 69.730469 L 229.890625 69.804688 L 229.902344 69.867188 C 229.949219 70.164062 230.148438 71.507812 230.148438 73.265625 C 230.148438 75.15625 229.914062 77.523438 229.042969 79.550781 C 228.609375 80.566406 228.015625 81.5 227.21875 82.261719 C 226.425781 83.023438 225.425781 83.617188 224.144531 83.964844 C 223.371094 84.171875 222.75 84.265625 222.28125 84.261719 C 221.730469 84.261719 221.414062 84.140625 221.246094 83.988281 C 221.160156 83.910156 221.101562 83.820312 221.054688 83.699219 C 221.011719 83.578125 220.984375 83.429688 220.984375 83.242188 C 220.980469 82.574219 221.351562 81.519531 221.992188 80.328125 C 223.910156 76.734375 228.109375 71.84375 230.296875 69.734375 L 229.722656 69.089844 C 229.722656 69.089844 229.566406 69.214844 229.292969 69.4375 C 228.335938 70.222656 225.90625 72.179688 223.535156 73.9375 C 222.347656 74.816406 221.175781 75.644531 220.214844 76.246094 C 219.734375 76.546875 219.308594 76.792969 218.96875 76.957031 C 218.796875 77.039062 218.648438 77.101562 218.53125 77.136719 C 218.414062 77.175781 218.332031 77.1875 218.304688 77.1875 L 218.300781 77.1875 L 218.277344 77.386719 L 218.425781 77.261719 C 218.371094 77.203125 218.304688 77.183594 218.300781 77.1875 L 218.277344 77.386719 L 218.425781 77.261719 L 218.25 77.414062 L 218.46875 77.34375 L 218.425781 77.261719 L 218.25 77.414062 L 218.46875 77.34375 L 218.371094 77.371094 L 218.476562 77.371094 L 218.46875 77.34375 L 218.371094 77.371094 L 218.476562 77.371094 L 218.476562 77.359375 C 218.523438 76.9375 218.820312 76.207031 219.347656 75.40625 C 220.148438 74.195312 221.460938 72.796875 223.179688 71.710938 C 224.898438 70.621094 227.015625 69.84375 229.453125 69.84375 C 229.628906 69.84375 229.800781 69.847656 229.976562 69.855469 L 229.996094 69.421875 L 229.699219 69.734375 L 230.019531 70.042969 L 230.316406 69.730469 L 229.890625 69.804688 L 230.316406 69.730469 L 230.617188 69.417969 L 230.296875 69.109375 L 230.179688 68.996094 L 230.019531 68.992188 C 229.828125 68.984375 229.640625 68.976562 229.453125 68.976562 C 225.953125 68.976562 223.066406 70.46875 221.03125 72.226562 C 220.015625 73.109375 219.207031 74.054688 218.628906 74.929688 C 218.050781 75.8125 217.703125 76.601562 217.617188 77.253906 L 217.617188 77.25 L 217.609375 77.371094 C 217.609375 77.457031 217.621094 77.542969 217.65625 77.632812 C 217.703125 77.765625 217.816406 77.898438 217.941406 77.964844 C 218.070312 78.035156 218.195312 78.050781 218.304688 78.050781 C 218.5 78.050781 218.675781 78.003906 218.871094 77.933594 C 219.234375 77.804688 219.664062 77.582031 220.160156 77.292969 C 221.886719 76.277344 224.398438 74.402344 226.5 72.769531 C 228.597656 71.140625 230.269531 69.757812 230.273438 69.753906 L 229.996094 69.421875 L 229.695312 69.113281 C 228.191406 70.570312 225.824219 73.222656 223.816406 75.9375 C 222.8125 77.296875 221.898438 78.667969 221.230469 79.917969 C 220.5625 81.175781 220.128906 82.296875 220.121094 83.242188 C 220.121094 83.507812 220.15625 83.765625 220.246094 84 C 220.375 84.359375 220.636719 84.667969 220.992188 84.855469 C 221.347656 85.046875 221.777344 85.128906 222.28125 85.128906 C 222.859375 85.128906 223.542969 85.023438 224.367188 84.796875 C 225.785156 84.417969 226.921875 83.742188 227.820312 82.886719 C 229.160156 81.597656 229.957031 79.917969 230.417969 78.203125 C 230.878906 76.488281 231.011719 74.734375 231.011719 73.265625 C 231.011719 71.183594 230.746094 69.671875 230.742188 69.652344 L 230.71875 69.515625 L 230.617188 69.417969 L 230.316406 69.730469 " fill-opacity="1" fill-rule="nonzero"/><path fill="#ffffff" d="M 231.214844 68.792969 L 231.164062 69.222656 C 231.175781 69.222656 232.03125 69.328125 233.335938 69.328125 C 235.132812 69.328125 237.78125 69.132812 240.253906 68.15625 C 241.492188 67.664062 242.683594 66.976562 243.695312 66.011719 C 244.703125 65.050781 245.527344 63.808594 246.011719 62.242188 C 246.316406 61.242188 246.464844 60.449219 246.46875 59.804688 C 246.464844 59.230469 246.347656 58.75 246.046875 58.398438 C 245.894531 58.222656 245.703125 58.09375 245.496094 58.011719 C 245.289062 57.933594 245.066406 57.898438 244.835938 57.898438 C 244.375 57.902344 243.878906 58.03125 243.335938 58.242188 C 241.445312 58.988281 238.957031 60.808594 236.59375 62.789062 C 234.238281 64.769531 232.035156 66.910156 230.804688 68.296875 L 231.128906 68.582031 L 231.476562 68.839844 C 231.480469 68.835938 233.347656 66.28125 235.21875 63.492188 C 236.15625 62.09375 237.09375 60.636719 237.804688 59.398438 C 238.15625 58.78125 238.457031 58.21875 238.667969 57.734375 C 238.777344 57.496094 238.863281 57.273438 238.925781 57.074219 C 238.984375 56.871094 239.027344 56.6875 239.027344 56.5 C 239.027344 56.347656 239 56.175781 238.871094 56.007812 C 238.808594 55.929688 238.714844 55.863281 238.625 55.824219 C 238.527344 55.785156 238.433594 55.769531 238.347656 55.769531 C 238.292969 55.769531 238.242188 55.773438 238.191406 55.785156 C 237.5625 55.894531 236.808594 56.261719 235.976562 56.847656 C 234.738281 57.730469 233.359375 59.113281 232.277344 60.910156 C 231.195312 62.710938 230.417969 64.925781 230.417969 67.445312 C 230.417969 67.800781 230.429688 68.160156 230.464844 68.527344 L 230.480469 68.6875 L 231.019531 69.207031 L 231.164062 69.222656 L 231.214844 68.792969 L 231.515625 68.480469 L 231.195312 68.175781 L 230.894531 68.488281 L 231.324219 68.449219 C 231.296875 68.109375 231.28125 67.773438 231.28125 67.445312 C 231.28125 64.328125 232.566406 61.699219 234.113281 59.800781 C 234.882812 58.851562 235.71875 58.089844 236.480469 57.550781 C 237.234375 57.011719 237.925781 56.699219 238.332031 56.636719 L 238.347656 56.636719 L 238.347656 56.488281 L 238.292969 56.621094 L 238.347656 56.636719 L 238.347656 56.488281 L 238.292969 56.621094 L 238.378906 56.410156 L 238.171875 56.511719 C 238.183594 56.546875 238.242188 56.605469 238.292969 56.621094 L 238.378906 56.410156 L 238.171875 56.511719 L 238.277344 56.460938 L 238.160156 56.480469 L 238.171875 56.511719 L 238.277344 56.460938 L 238.160156 56.480469 L 238.164062 56.5 C 238.164062 56.546875 238.144531 56.667969 238.097656 56.820312 C 237.917969 57.410156 237.363281 58.46875 236.640625 59.667969 C 235.554688 61.476562 234.085938 63.648438 232.890625 65.359375 C 232.292969 66.214844 231.765625 66.957031 231.386719 67.488281 C 231.007812 68.015625 230.777344 68.328125 230.777344 68.328125 L 231.449219 68.871094 C 232.808594 67.339844 235.472656 64.78125 238.15625 62.625 C 239.496094 61.546875 240.84375 60.570312 242.027344 59.867188 C 242.617188 59.515625 243.167969 59.234375 243.652344 59.046875 C 244.132812 58.855469 244.542969 58.761719 244.835938 58.765625 C 244.984375 58.765625 245.097656 58.785156 245.183594 58.816406 C 245.3125 58.871094 245.390625 58.9375 245.46875 59.082031 C 245.546875 59.226562 245.601562 59.460938 245.601562 59.804688 C 245.601562 60.3125 245.476562 61.039062 245.183594 61.988281 C 244.742188 63.410156 244.007812 64.515625 243.097656 65.386719 C 241.730469 66.691406 239.949219 67.46875 238.171875 67.910156 C 236.398438 68.355469 234.636719 68.464844 233.335938 68.464844 C 232.707031 68.464844 232.1875 68.4375 231.824219 68.414062 C 231.644531 68.402344 231.503906 68.390625 231.410156 68.378906 L 231.269531 68.363281 L 231.214844 68.792969 L 231.515625 68.480469 L 231.214844 68.792969 " fill-opacity="1" fill-rule="nonzero"/><path fill="#211c1d" d="M 228.859375 69.859375 C 228.859375 69.859375 231.042969 82.285156 222.800781 84.511719 C 213.382812 87.050781 224.394531 73.558594 228.539062 69.550781 C 228.539062 69.550781 216.320312 79.632812 216.589844 77.4375 C 216.855469 75.238281 221.480469 69.234375 228.539062 69.550781 L 228.859375 69.859375 " fill-opacity="1" fill-rule="nonzero"/><path fill="#211c1d" d="M 229.757812 68.921875 C 229.757812 68.921875 241.613281 70.402344 244.136719 62.246094 C 247.183594 52.394531 233.496094 64.402344 229.667969 68.714844 C 229.667969 68.714844 238.992188 55.980469 236.804688 56.339844 C 234.617188 56.699219 228.816406 61.578125 229.4375 68.617188 L 229.757812 68.921875 " fill-opacity="1" fill-rule="nonzero"/><path fill="#ffffff" d="M 228.203125 60.390625 L 227.839844 60.738281 C 228.425781 61.34375 229.070312 62.328125 229.550781 63.40625 C 230.03125 64.480469 230.351562 65.652344 230.351562 66.609375 C 230.351562 66.980469 230.304688 67.316406 230.210938 67.605469 C 230.117188 67.894531 229.980469 68.132812 229.792969 68.332031 C 229.589844 68.542969 229.332031 68.699219 229.011719 68.808594 C 228.695312 68.914062 228.316406 68.964844 227.90625 68.964844 C 226.949219 68.964844 225.808594 68.683594 224.753906 68.25 C 223.703125 67.820312 222.734375 67.242188 222.121094 66.703125 C 220.683594 65.441406 219.855469 63.953125 219.382812 62.539062 C 218.910156 61.121094 218.796875 59.773438 218.796875 58.824219 C 218.796875 58.40625 218.820312 58.0625 218.839844 57.832031 C 218.851562 57.710938 218.863281 57.625 218.871094 57.5625 L 218.878906 57.480469 L 218.386719 57.398438 L 218.480469 57.890625 L 218.484375 57.890625 C 218.546875 57.878906 219.234375 57.757812 220.253906 57.757812 C 221.238281 57.757812 222.535156 57.871094 223.882812 58.304688 C 225.230469 58.734375 226.625 59.476562 227.839844 60.738281 L 228.5625 60.039062 C 227.21875 58.640625 225.660156 57.816406 224.1875 57.34375 C 222.710938 56.875 221.316406 56.753906 220.253906 56.753906 C 219.082031 56.753906 218.3125 56.902344 218.289062 56.90625 L 217.945312 56.972656 L 217.890625 57.316406 C 217.886719 57.339844 217.792969 57.914062 217.792969 58.824219 C 217.792969 59.851562 217.910156 61.304688 218.429688 62.855469 C 218.945312 64.40625 219.867188 66.0625 221.457031 67.457031 C 222.191406 68.097656 223.230469 68.710938 224.375 69.179688 C 225.515625 69.648438 226.761719 69.96875 227.90625 69.96875 C 228.402344 69.96875 228.882812 69.90625 229.332031 69.757812 C 229.773438 69.613281 230.1875 69.371094 230.519531 69.027344 C 230.824219 68.707031 231.035156 68.324219 231.167969 67.914062 C 231.300781 67.503906 231.355469 67.0625 231.355469 66.609375 C 231.355469 65.441406 230.988281 64.164062 230.464844 62.996094 C 229.941406 61.824219 229.261719 60.765625 228.5625 60.039062 L 228.203125 60.390625 " fill-opacity="1" fill-rule="nonzero"/><path fill="#ffffff" d="M 234.621094 69.777344 L 234.371094 70.035156 C 234.621094 70.273438 234.859375 70.632812 235.023438 71.03125 C 235.191406 71.425781 235.289062 71.859375 235.289062 72.25 C 235.289062 72.675781 235.175781 73.027344 234.949219 73.261719 C 234.707031 73.515625 234.316406 73.648438 233.84375 73.648438 C 233.085938 73.65625 232.175781 73.289062 231.699219 72.824219 C 231.304688 72.445312 231.105469 71.9375 231.105469 71.429688 C 231.105469 70.945312 231.28125 70.46875 231.640625 70.09375 C 232.023438 69.695312 232.527344 69.5 233.035156 69.496094 C 233.515625 69.5 233.996094 69.675781 234.371094 70.035156 L 234.621094 69.777344 L 234.867188 69.515625 C 234.355469 69.023438 233.691406 68.777344 233.035156 68.777344 C 232.339844 68.777344 231.640625 69.054688 231.125 69.59375 C 230.632812 70.109375 230.386719 70.769531 230.386719 71.429688 C 230.386719 72.125 230.660156 72.824219 231.203125 73.34375 C 231.855469 73.957031 232.878906 74.359375 233.84375 74.367188 C 234.441406 74.367188 235.039062 74.203125 235.46875 73.757812 C 235.859375 73.347656 236.007812 72.796875 236.007812 72.25 C 236.007812 71.742188 235.886719 71.222656 235.6875 70.75 C 235.484375 70.277344 235.210938 69.84375 234.867188 69.515625 L 234.621094 69.777344 " fill-opacity="1" fill-rule="nonzero"/><path fill="#ffffff" d="M 240.078125 71.21875 C 240.058594 71.238281 239.753906 71.5625 239.203125 71.875 C 238.648438 72.191406 237.851562 72.496094 236.820312 72.496094 C 236.46875 72.496094 236.085938 72.460938 235.671875 72.375 L 235.527344 73.078125 C 235.988281 73.171875 236.417969 73.214844 236.820312 73.214844 C 238.035156 73.214844 238.980469 72.839844 239.617188 72.464844 C 240.257812 72.089844 240.597656 71.714844 240.613281 71.695312 L 240.078125 71.21875 " fill-opacity="1" fill-rule="nonzero"/><path fill="#ffffff" d="M 234.089844 74.027344 C 234.214844 74.519531 234.265625 74.972656 234.265625 75.386719 C 234.265625 76.382812 233.976562 77.15625 233.683594 77.683594 C 233.539062 77.949219 233.394531 78.152344 233.289062 78.285156 C 233.238281 78.351562 233.191406 78.402344 233.160156 78.433594 L 233.132812 78.46875 L 233.125 78.472656 L 233.621094 78.992188 C 233.644531 78.972656 233.976562 78.644531 234.316406 78.03125 C 234.652344 77.421875 234.984375 76.523438 234.984375 75.386719 C 234.984375 74.914062 234.929688 74.398438 234.789062 73.847656 L 234.089844 74.027344 " fill-opacity="1" fill-rule="nonzero"/><path fill="#ffffff" d="M 231.234375 68.808594 C 231.5625 69.125 231.625 69.597656 231.371094 69.859375 C 231.113281 70.125 230.640625 70.082031 230.3125 69.765625 C 229.984375 69.453125 229.921875 68.984375 230.175781 68.714844 C 230.429688 68.449219 230.902344 68.492188 231.234375 68.808594 " fill-opacity="1" fill-rule="nonzero"/><path fill="#ffffff" d="M 229.980469 62.871094 C 229.925781 62.882812 229.0625 63.074219 227.9375 63.886719 C 226.816406 64.703125 225.4375 66.144531 224.367188 68.621094 L 225.292969 69.019531 C 226.296875 66.703125 227.542969 65.417969 228.527344 64.699219 C 229.019531 64.34375 229.449219 64.128906 229.746094 64.007812 C 229.894531 63.945312 230.011719 63.90625 230.085938 63.882812 L 230.167969 63.859375 L 230.1875 63.855469 L 230.171875 63.804688 L 230.183594 63.855469 L 230.1875 63.855469 L 230.171875 63.804688 L 230.183594 63.855469 L 229.980469 62.871094 " fill-opacity="1" fill-rule="nonzero"/><path fill="#ffffff" d="M 224.113281 57.253906 C 224.058594 57.261719 223.195312 57.449219 222.070312 58.265625 C 220.949219 59.082031 219.574219 60.523438 218.503906 63 L 219.425781 63.398438 C 220.429688 61.078125 221.675781 59.796875 222.660156 59.082031 C 223.152344 58.722656 223.578125 58.507812 223.878906 58.386719 C 224.027344 58.324219 224.140625 58.285156 224.21875 58.261719 L 224.300781 58.238281 L 224.316406 58.234375 L 224.304688 58.183594 L 224.316406 58.234375 L 224.304688 58.183594 L 224.316406 58.234375 L 224.113281 57.253906 " fill-opacity="1" fill-rule="nonzero"/><path fill="#ffffff" d="M 227.691406 59.296875 C 227.613281 59.3125 226.535156 59.554688 225.136719 60.566406 C 223.738281 61.578125 222.035156 63.371094 220.714844 66.425781 L 222.097656 67.027344 C 223.320312 64.203125 224.835938 62.648438 226.019531 61.785156 C 226.617188 61.355469 227.128906 61.097656 227.484375 60.949219 C 227.664062 60.878906 227.800781 60.828125 227.890625 60.804688 L 227.984375 60.777344 L 228.003906 60.773438 L 227.902344 60.308594 L 228 60.773438 L 228.003906 60.773438 L 227.902344 60.308594 L 228 60.773438 L 227.691406 59.296875 " fill-opacity="1" fill-rule="nonzero"/><path fill="#ffffff" d="M 213.398438 50.808594 C 212.9375 50.394531 212.445312 49.996094 211.921875 49.617188 C 211.714844 49.464844 211.425781 49.507812 211.273438 49.714844 C 211.125 49.921875 211.171875 50.210938 211.375 50.363281 C 211.875 50.726562 212.34375 51.105469 212.777344 51.496094 C 212.96875 51.667969 213.261719 51.652344 213.433594 51.460938 C 213.601562 51.269531 213.585938 50.976562 213.398438 50.808594 " fill-opacity="1" fill-rule="nonzero"/><g clip-path="url(#7923e9a553)"><path fill="#ffffff" d="M 208.707031 47.65625 C 207.597656 47.101562 206.429688 46.621094 205.226562 46.238281 C 204.984375 46.160156 204.722656 46.292969 204.648438 46.539062 C 204.570312 46.78125 204.703125 47.039062 204.945312 47.117188 C 206.101562 47.484375 207.226562 47.949219 208.292969 48.484375 C 208.519531 48.597656 208.796875 48.507812 208.914062 48.28125 C 209.027344 48.050781 208.933594 47.773438 208.707031 47.65625 Z M 201.554688 45.402344 C 200.761719 45.296875 199.972656 45.246094 199.191406 45.246094 C 198.714844 45.246094 198.238281 45.265625 197.769531 45.308594 C 197.515625 45.328125 197.328125 45.554688 197.351562 45.808594 C 197.375 46.0625 197.597656 46.25 197.851562 46.226562 C 198.296875 46.1875 198.738281 46.167969 199.191406 46.167969 C 199.929688 46.167969 200.679688 46.222656 201.433594 46.320312 C 201.683594 46.355469 201.917969 46.175781 201.953125 45.925781 C 201.984375 45.671875 201.808594 45.4375 201.554688 45.402344 Z M 194.0625 46.179688 C 192.886719 46.648438 191.789062 47.316406 190.804688 48.195312 C 190.613281 48.367188 190.597656 48.660156 190.769531 48.847656 C 190.941406 49.039062 191.230469 49.054688 191.421875 48.882812 C 192.324219 48.078125 193.324219 47.46875 194.40625 47.035156 C 194.644531 46.941406 194.757812 46.671875 194.660156 46.433594 C 194.566406 46.199219 194.296875 46.082031 194.0625 46.179688 Z M 188.441406 51.210938 C 187.824219 52.371094 187.433594 53.601562 187.238281 54.84375 C 187.199219 55.097656 187.371094 55.332031 187.625 55.371094 C 187.875 55.410156 188.113281 55.242188 188.152344 54.988281 C 188.335938 53.835938 188.691406 52.707031 189.257812 51.644531 C 189.375 51.417969 189.292969 51.140625 189.0625 51.019531 C 188.839844 50.902344 188.558594 50.984375 188.4375 51.210938 Z M 187.210938 58.65625 C 187.394531 59.964844 187.761719 61.214844 188.285156 62.316406 C 188.394531 62.546875 188.671875 62.648438 188.902344 62.539062 C 189.132812 62.429688 189.230469 62.152344 189.121094 61.921875 C 188.644531 60.910156 188.296875 59.75 188.125 58.527344 C 188.089844 58.277344 187.859375 58.097656 187.605469 58.132812 C 187.351562 58.167969 187.175781 58.402344 187.210938 58.65625 Z M 190.605469 65.40625 C 191.527344 66.164062 192.613281 66.621094 193.78125 66.621094 C 193.976562 66.621094 194.175781 66.605469 194.375 66.582031 C 194.628906 66.546875 194.804688 66.316406 194.773438 66.0625 C 194.742188 65.808594 194.507812 65.628906 194.253906 65.664062 C 194.09375 65.683594 193.9375 65.695312 193.78125 65.695312 C 192.859375 65.695312 191.988281 65.339844 191.191406 64.691406 C 190.992188 64.527344 190.699219 64.558594 190.539062 64.757812 C 190.378906 64.953125 190.40625 65.246094 190.605469 65.40625 Z M 197.832031 64.738281 L 197.839844 64.730469 C 198.324219 64.257812 198.6875 63.800781 198.929688 63.34375 C 199.175781 62.890625 199.300781 62.433594 199.300781 61.992188 C 199.300781 61.628906 199.214844 61.28125 199.0625 60.964844 C 198.953125 60.734375 198.675781 60.636719 198.445312 60.746094 C 198.214844 60.859375 198.121094 61.136719 198.230469 61.363281 C 198.328125 61.570312 198.375 61.773438 198.375 61.992188 C 198.375 62.257812 198.300781 62.5625 198.117188 62.90625 C 197.929688 63.253906 197.628906 63.644531 197.195312 64.066406 L 197.1875 64.070312 C 197.003906 64.25 197 64.542969 197.175781 64.726562 C 197.351562 64.910156 197.648438 64.914062 197.832031 64.738281 Z M 195.878906 58.625 C 194.800781 58.226562 193.546875 57.921875 192.214844 57.707031 C 191.964844 57.667969 191.726562 57.839844 191.683594 58.09375 C 191.644531 58.34375 191.816406 58.582031 192.070312 58.621094 C 193.355469 58.828125 194.554688 59.121094 195.558594 59.492188 C 195.796875 59.582031 196.066406 59.460938 196.152344 59.222656 C 196.242188 58.980469 196.121094 58.714844 195.878906 58.625 Z M 188.484375 57.355469 C 188.128906 57.34375 187.777344 57.335938 187.429688 57.335938 C 186.496094 57.335938 185.589844 57.378906 184.734375 57.46875 C 184.480469 57.492188 184.292969 57.71875 184.320312 57.972656 C 184.347656 58.226562 184.574219 58.414062 184.828125 58.386719 C 185.644531 58.304688 186.527344 58.261719 187.429688 58.261719 C 187.765625 58.261719 188.109375 58.269531 188.453125 58.277344 C 188.707031 58.289062 188.921875 58.089844 188.933594 57.832031 C 188.941406 57.578125 188.738281 57.363281 188.484375 57.355469 Z M 181.011719 58.308594 L 180.949219 58.339844 C 179.78125 58.859375 178.742188 59.570312 177.820312 60.421875 C 177.632812 60.59375 177.625 60.886719 177.792969 61.074219 C 177.96875 61.261719 178.261719 61.273438 178.449219 61.101562 C 179.300781 60.3125 180.257812 59.664062 181.328125 59.179688 L 181.378906 59.160156 C 181.613281 59.058594 181.722656 58.785156 181.621094 58.550781 C 181.515625 58.316406 181.242188 58.207031 181.011719 58.308594 Z M 175.410156 63.355469 C 174.746094 64.402344 174.1875 65.539062 173.722656 66.730469 C 173.628906 66.964844 173.75 67.234375 173.984375 67.328125 C 174.222656 67.421875 174.492188 67.304688 174.585938 67.066406 C 175.03125 65.921875 175.566406 64.839844 176.191406 63.851562 C 176.328125 63.632812 176.265625 63.347656 176.046875 63.210938 C 175.832031 63.074219 175.546875 63.140625 175.410156 63.355469 Z M 172.625 70.320312 C 172.339844 71.539062 172.140625 72.78125 172.007812 74.015625 C 171.980469 74.269531 172.164062 74.496094 172.417969 74.523438 C 172.675781 74.550781 172.902344 74.367188 172.929688 74.113281 C 173.054688 72.914062 173.253906 71.710938 173.523438 70.527344 C 173.582031 70.277344 173.429688 70.03125 173.179688 69.972656 C 172.929688 69.914062 172.683594 70.070312 172.625 70.320312 Z M 171.832031 77.753906 C 171.84375 79.058594 171.9375 80.320312 172.105469 81.492188 C 172.144531 81.742188 172.378906 81.917969 172.628906 81.882812 C 172.882812 81.847656 173.058594 81.613281 173.023438 81.359375 C 172.863281 80.230469 172.769531 79.011719 172.757812 77.742188 C 172.753906 77.488281 172.542969 77.28125 172.289062 77.285156 C 172.035156 77.289062 171.828125 77.496094 171.832031 77.753906 Z M 172.820312 85.148438 C 173.117188 86.449219 173.410156 87.632812 173.632812 88.734375 C 173.683594 88.984375 173.929688 89.148438 174.175781 89.097656 C 174.429688 89.046875 174.589844 88.800781 174.539062 88.550781 C 174.308594 87.421875 174.015625 86.234375 173.722656 84.941406 C 173.667969 84.691406 173.417969 84.539062 173.167969 84.59375 C 172.921875 84.648438 172.765625 84.898438 172.820312 85.148438 Z M 174.042969 92.292969 C 174.023438 93.433594 173.820312 94.539062 173.328125 95.707031 C 173.230469 95.945312 173.339844 96.214844 173.574219 96.3125 C 173.808594 96.414062 174.082031 96.304688 174.183594 96.070312 C 174.722656 94.789062 174.949219 93.550781 174.964844 92.308594 C 174.96875 92.054688 174.765625 91.84375 174.511719 91.839844 C 174.253906 91.832031 174.042969 92.039062 174.042969 92.292969 Z M 171.472656 98.738281 C 171.066406 99.25 170.601562 99.785156 170.070312 100.339844 C 169.722656 100.703125 169.367188 101.050781 169.011719 101.390625 C 168.824219 101.566406 168.816406 101.859375 168.992188 102.042969 C 169.167969 102.230469 169.460938 102.238281 169.644531 102.0625 C 170.015625 101.714844 170.378906 101.355469 170.738281 100.980469 C 171.285156 100.40625 171.769531 99.851562 172.199219 99.3125 C 172.359375 99.109375 172.324219 98.820312 172.125 98.664062 C 171.925781 98.503906 171.632812 98.535156 171.472656 98.738281 Z M 166.207031 103.679688 C 165.203125 104.382812 164.164062 104.992188 163.097656 105.511719 C 162.867188 105.625 162.769531 105.902344 162.882812 106.128906 C 162.992188 106.359375 163.269531 106.457031 163.5 106.34375 C 164.613281 105.804688 165.695312 105.167969 166.738281 104.4375 C 166.949219 104.289062 166.996094 104 166.851562 103.792969 C 166.703125 103.582031 166.417969 103.53125 166.207031 103.679688 Z M 159.730469 106.804688 C 158.578125 107.136719 157.398438 107.371094 156.195312 107.503906 C 155.941406 107.53125 155.757812 107.757812 155.785156 108.011719 C 155.8125 108.269531 156.039062 108.453125 156.292969 108.421875 C 157.550781 108.285156 158.78125 108.042969 159.988281 107.695312 C 160.234375 107.625 160.375 107.367188 160.304688 107.121094 C 160.230469 106.875 159.976562 106.734375 159.730469 106.804688 Z M 152.585938 107.59375 C 151.410156 107.527344 150.214844 107.367188 149.003906 107.113281 C 148.753906 107.058594 148.507812 107.21875 148.457031 107.46875 C 148.402344 107.71875 148.5625 107.964844 148.8125 108.019531 C 150.066406 108.28125 151.308594 108.449219 152.535156 108.515625 C 152.789062 108.53125 153.007812 108.335938 153.023438 108.082031 C 153.035156 107.828125 152.84375 107.609375 152.585938 107.59375 Z M 145.53125 106.105469 C 144.4375 105.691406 143.320312 105.175781 142.1875 104.640625 C 141.953125 104.53125 141.679688 104.632812 141.570312 104.863281 C 141.460938 105.09375 141.558594 105.371094 141.792969 105.480469 C 142.933594 106.015625 144.066406 106.539062 145.203125 106.972656 C 145.441406 107.0625 145.707031 106.945312 145.800781 106.703125 C 145.890625 106.464844 145.773438 106.199219 145.53125 106.105469 Z M 138.820312 103.089844 C 137.660156 102.589844 136.480469 102.140625 135.285156 101.824219 C 135.039062 101.757812 134.785156 101.902344 134.71875 102.148438 C 134.652344 102.398438 134.800781 102.652344 135.046875 102.71875 C 136.179688 103.015625 137.316406 103.449219 138.453125 103.941406 C 138.6875 104.042969 138.960938 103.933594 139.0625 103.699219 C 139.164062 103.464844 139.054688 103.191406 138.820312 103.089844 Z M 131.503906 101.347656 L 131.398438 101.351562 C 130.078125 101.410156 128.867188 101.734375 127.765625 102.25 C 127.53125 102.355469 127.433594 102.632812 127.542969 102.863281 C 127.648438 103.09375 127.921875 103.195312 128.15625 103.085938 C 129.160156 102.621094 130.246094 102.328125 131.441406 102.277344 L 131.535156 102.269531 C 131.792969 102.261719 131.992188 102.046875 131.980469 101.792969 C 131.972656 101.535156 131.757812 101.335938 131.503906 101.347656 Z M 124.617188 104.402344 C 123.699219 105.242188 122.859375 106.195312 122.089844 107.1875 C 121.929688 107.390625 121.964844 107.683594 122.167969 107.839844 C 122.371094 107.996094 122.660156 107.960938 122.816406 107.757812 C 123.570312 106.792969 124.371094 105.878906 125.242188 105.085938 C 125.429688 104.914062 125.441406 104.621094 125.269531 104.433594 C 125.097656 104.242188 124.804688 104.230469 124.617188 104.402344 " fill-opacity="1" fill-rule="nonzero"/></g><g clip-path="url(#b68b16496c)"><path fill="#ffffff" d="M 119.890625 110.28125 C 119.542969 110.804688 119.199219 111.324219 118.867188 111.824219 C 118.726562 112.039062 118.785156 112.324219 119 112.464844 C 119.207031 112.605469 119.496094 112.550781 119.636719 112.335938 C 119.972656 111.832031 120.3125 111.316406 120.660156 110.792969 C 120.804688 110.582031 120.746094 110.292969 120.53125 110.152344 C 120.320312 110.011719 120.03125 110.070312 119.890625 110.28125 " fill-opacity="1" fill-rule="nonzero"/></g><g fill="#ffffff" fill-opacity="1"><g transform="translate(126.765944, 114.340626)"><g><path d="M 35.234375 -21.15625 C 37.953125 -20.8125 40.128906 -20.242188 41.765625 -19.453125 C 43.410156 -18.671875 44.664062 -17.785156 45.53125 -16.796875 C 46.394531 -15.804688 46.984375 -14.800781 47.296875 -13.78125 C 47.617188 -12.757812 47.78125 -11.820312 47.78125 -10.96875 C 47.78125 -8.664062 46.914062 -6.671875 45.1875 -4.984375 C 44.226562 -4.054688 43.085938 -3.285156 41.765625 -2.671875 C 40.441406 -2.066406 39.050781 -1.582031 37.59375 -1.21875 C 36.144531 -0.851562 34.726562 -0.582031 33.34375 -0.40625 C 31.957031 -0.226562 30.710938 -0.113281 29.609375 -0.0625 C 28.503906 -0.0195312 27.664062 0 27.09375 0 C 26.96875 0 26.847656 0 26.734375 0 C 26.628906 0 26.539062 0 26.46875 0 L 2.875 0 L 2.875 -33.46875 L 17.765625 -33.46875 C 18.941406 -33.46875 20.3125 -33.429688 21.875 -33.359375 C 23.4375 -33.296875 25.03125 -33.132812 26.65625 -32.875 C 28.289062 -32.625 29.800781 -32.1875 31.1875 -31.5625 C 32.570312 -30.945312 33.695312 -30.070312 34.5625 -28.9375 C 35.425781 -27.800781 35.859375 -26.359375 35.859375 -24.609375 C 35.859375 -23.296875 35.648438 -22.144531 35.234375 -21.15625 Z M 9.046875 -27.28125 L 9.046875 -21.5 L 16.515625 -21.5 C 19.160156 -21.5 21.3125 -21.550781 22.96875 -21.65625 C 24.632812 -21.769531 25.929688 -21.929688 26.859375 -22.140625 C 27.785156 -22.347656 28.445312 -22.578125 28.84375 -22.828125 C 29.238281 -23.085938 29.476562 -23.367188 29.5625 -23.671875 C 29.644531 -23.972656 29.6875 -24.285156 29.6875 -24.609375 C 29.6875 -25.023438 29.375 -25.4375 28.75 -25.84375 C 28.125 -26.257812 26.957031 -26.601562 25.25 -26.875 C 23.539062 -27.144531 21.046875 -27.28125 17.765625 -27.28125 Z M 40.40625 -9.390625 C 40.726562 -9.703125 40.925781 -9.984375 41 -10.234375 C 41.082031 -10.492188 41.125 -10.738281 41.125 -10.96875 C 41.125 -12.019531 40.570312 -12.863281 39.46875 -13.5 C 38.375 -14.132812 36.945312 -14.59375 35.1875 -14.875 C 33.4375 -15.164062 31.601562 -15.3125 29.6875 -15.3125 L 9.046875 -15.3125 L 9.046875 -6.171875 L 26.515625 -6.171875 C 27.578125 -6.140625 28.773438 -6.171875 30.109375 -6.265625 C 31.453125 -6.367188 32.785156 -6.546875 34.109375 -6.796875 C 35.429688 -7.054688 36.648438 -7.398438 37.765625 -7.828125 C 38.890625 -8.253906 39.769531 -8.773438 40.40625 -9.390625 Z M 40.40625 -9.390625 "/></g></g></g><g fill="#ffffff" fill-opacity="1"><g transform="translate(177.415287, 114.340626)"><g><path d="M 2.875 0 L 2.875 -33.46875 L 48.78125 -33.46875 L 48.78125 -27.28125 L 9.046875 -27.28125 L 9.046875 -21.59375 L 39.0625 -21.59375 L 39.0625 -15.421875 L 9.046875 -15.421875 L 9.046875 -6.171875 L 48.78125 -6.171875 L 48.78125 0 Z M 2.875 0 "/></g></g></g><g fill="#ffffff" fill-opacity="1"><g transform="translate(229.069953, 114.340626)"><g><path d="M 2.875 0 L 2.875 -33.46875 L 48.78125 -33.46875 L 48.78125 -27.28125 L 9.046875 -27.28125 L 9.046875 -21.59375 L 39.0625 -21.59375 L 39.0625 -15.421875 L 9.046875 -15.421875 L 9.046875 -6.171875 L 48.78125 -6.171875 L 48.78125 0 Z M 2.875 0 "/></g></g></g><g fill="#ffb11c" fill-opacity="1"><g transform="translate(129.579424, 148.413356)"><g><path d="M 20.75 -12.46875 C 22.351562 -12.257812 23.640625 -11.925781 24.609375 -11.46875 C 25.578125 -11.007812 26.3125 -10.488281 26.8125 -9.90625 C 27.320312 -9.320312 27.671875 -8.726562 27.859375 -8.125 C 28.046875 -7.519531 28.140625 -6.960938 28.140625 -6.453125 C 28.140625 -5.097656 27.632812 -3.925781 26.625 -2.9375 C 26.0625 -2.382812 25.390625 -1.929688 24.609375 -1.578125 C 23.828125 -1.222656 23.007812 -0.9375 22.15625 -0.71875 C 21.300781 -0.5 20.460938 -0.335938 19.640625 -0.234375 C 18.828125 -0.128906 18.09375 -0.0625 17.4375 -0.03125 C 16.789062 -0.0078125 16.300781 0 15.96875 0 C 15.882812 0 15.8125 0 15.75 0 C 15.6875 0 15.632812 0 15.59375 0 L 1.6875 0 L 1.6875 -19.71875 L 10.46875 -19.71875 C 11.15625 -19.71875 11.957031 -19.695312 12.875 -19.65625 C 13.800781 -19.613281 14.742188 -19.519531 15.703125 -19.375 C 16.660156 -19.226562 17.546875 -18.96875 18.359375 -18.59375 C 19.179688 -18.226562 19.847656 -17.710938 20.359375 -17.046875 C 20.867188 -16.378906 21.125 -15.53125 21.125 -14.5 C 21.125 -13.726562 21 -13.050781 20.75 -12.46875 Z M 5.328125 -16.078125 L 5.328125 -12.65625 L 9.734375 -12.65625 C 11.296875 -12.65625 12.5625 -12.6875 13.53125 -12.75 C 14.507812 -12.820312 15.269531 -12.921875 15.8125 -13.046875 C 16.363281 -13.171875 16.753906 -13.304688 16.984375 -13.453125 C 17.222656 -13.597656 17.363281 -13.757812 17.40625 -13.9375 C 17.457031 -14.125 17.484375 -14.3125 17.484375 -14.5 C 17.484375 -14.738281 17.300781 -14.976562 16.9375 -15.21875 C 16.570312 -15.46875 15.882812 -15.671875 14.875 -15.828125 C 13.875 -15.992188 12.40625 -16.078125 10.46875 -16.078125 Z M 23.796875 -5.53125 C 23.984375 -5.71875 24.097656 -5.882812 24.140625 -6.03125 C 24.191406 -6.1875 24.21875 -6.328125 24.21875 -6.453125 C 24.21875 -7.078125 23.894531 -7.578125 23.25 -7.953125 C 22.601562 -8.328125 21.757812 -8.597656 20.71875 -8.765625 C 19.6875 -8.941406 18.609375 -9.03125 17.484375 -9.03125 L 5.328125 -9.03125 L 5.328125 -3.640625 L 15.625 -3.640625 C 16.25 -3.617188 16.953125 -3.632812 17.734375 -3.6875 C 18.523438 -3.75 19.3125 -3.851562 20.09375 -4 C 20.875 -4.15625 21.59375 -4.359375 22.25 -4.609375 C 22.90625 -4.859375 23.421875 -5.164062 23.796875 -5.53125 Z M 23.796875 -5.53125 "/></g></g></g><g fill="#ffb11c" fill-opacity="1"><g transform="translate(159.420167, 148.413356)"><g><path d="M 1.6875 0 L 1.6875 -19.71875 L 28.734375 -19.71875 L 28.734375 -16.078125 L 5.328125 -16.078125 L 5.328125 -12.71875 L 23.015625 -12.71875 L 23.015625 -9.078125 L 5.328125 -9.078125 L 5.328125 -3.640625 L 28.734375 -3.640625 L 28.734375 0 Z M 1.6875 0 "/></g></g></g><g fill="#ffb11c" fill-opacity="1"><g transform="translate(189.853209, 148.413356)"><g><path d="M 1.6875 0 L 1.6875 -19.71875 L 28.734375 -19.71875 L 28.734375 -16.078125 L 5.328125 -16.078125 L 5.328125 -12.71875 L 23.015625 -12.71875 L 23.015625 -9.078125 L 5.328125 -9.078125 L 5.328125 -3.640625 L 28.734375 -3.640625 L 28.734375 0 Z M 1.6875 0 "/></g></g></g></svg>